<svg width="1200" height="520" viewBox="0 0 1200 520" fill="none" xmlns="http://www.w3.org/2000/svg">
  <rect width="1200" height="520" fill="#070707"/>
  <rect x="1" y="1" width="1198" height="518" rx="28" fill="#111111" stroke="#2A2A2A" stroke-width="2"/>
  <path d="M0 0H1200V520H0V0Z" fill="url(#shade)"/>
  <circle cx="910" cy="86" r="220" fill="#F2B544" fill-opacity=".08"/>
  <circle cx="1030" cy="410" r="190" fill="#9945FF" fill-opacity=".08"/>
  <circle cx="246" cy="470" r="160" fill="#14F195" fill-opacity=".04"/>

  <g transform="translate(72 58)">
    <rect width="1056" height="404" rx="24" fill="#171717" stroke="#333333"/>
    <rect x="28" y="28" width="1000" height="56" rx="14" fill="#0D0D0D" stroke="#2A2A2A"/>
    <circle cx="56" cy="56" r="8" fill="#14F195"/>
    <text x="78" y="61" fill="#FFFFFF" font-family="Arial, Helvetica, sans-serif" font-size="18" font-weight="700">World Cup Bet Market Board</text>
    <text x="890" y="61" fill="#FFD36B" font-family="Arial, Helvetica, sans-serif" font-size="16" font-weight="700">SOLANA</text>

    <g transform="translate(28 112)">
      <rect width="640" height="244" rx="18" fill="#0B0B0B" stroke="#2A2A2A"/>
      <text x="28" y="38" fill="#B3B3B3" font-family="Arial, Helvetica, sans-serif" font-size="13" font-weight="700" letter-spacing="2">FEATURED MATCH</text>
      <text x="28" y="86" fill="#FFFFFF" font-family="Arial, Helvetica, sans-serif" font-size="38" font-weight="800">Argentina vs France</text>
      <text x="28" y="121" fill="#B3B3B3" font-family="Arial, Helvetica, sans-serif" font-size="18">Opening week market preview</text>

      <g transform="translate(28 154)">
        <rect width="176" height="62" rx="12" fill="#171717" stroke="#F2B544"/>
        <text x="18" y="25" fill="#B3B3B3" font-family="Arial, Helvetica, sans-serif" font-size="12" font-weight="700">HOME</text>
        <text x="18" y="49" fill="#FFD36B" font-family="Arial, Helvetica, sans-serif" font-size="26" font-weight="800">2.05</text>
      </g>
      <g transform="translate(232 154)">
        <rect width="176" height="62" rx="12" fill="#171717" stroke="#333333"/>
        <text x="18" y="25" fill="#B3B3B3" font-family="Arial, Helvetica, sans-serif" font-size="12" font-weight="700">DRAW</text>
        <text x="18" y="49" fill="#FFFFFF" font-family="Arial, Helvetica, sans-serif" font-size="26" font-weight="800">3.40</text>
      </g>
      <g transform="translate(436 154)">
        <rect width="176" height="62" rx="12" fill="#171717" stroke="#333333"/>
        <text x="18" y="25" fill="#B3B3B3" font-family="Arial, Helvetica, sans-serif" font-size="12" font-weight="700">AWAY</text>
        <text x="18" y="49" fill="#FFFFFF" font-family="Arial, Helvetica, sans-serif" font-size="26" font-weight="800">2.72</text>
      </g>
    </g>

    <g transform="translate(700 112)">
      <rect width="328" height="244" rx="18" fill="#0B0B0B" stroke="#2A2A2A"/>
      <text x="24" y="38" fill="#B3B3B3" font-family="Arial, Helvetica, sans-serif" font-size="13" font-weight="700" letter-spacing="2">BET SLIP</text>
      <rect x="24" y="58" width="280" height="58" rx="12" fill="#171717" stroke="#333333"/>
      <text x="42" y="82" fill="#FFFFFF" font-family="Arial, Helvetica, sans-serif" font-size="15" font-weight="700">Argentina win</text>
      <text x="246" y="95" fill="#FFD36B" font-family="Arial, Helvetica, sans-serif" font-size="22" font-weight="800">2.05</text>
      <rect x="24" y="130" width="280" height="38" rx="10" fill="#111111" stroke="#2A2A2A"/>
      <text x="42" y="154" fill="#B3B3B3" font-family="Arial, Helvetica, sans-serif" font-size="14">Stake credits</text>
      <text x="245" y="154" fill="#FFFFFF" font-family="Arial, Helvetica, sans-serif" font-size="14" font-weight="700">1,000</text>
      <rect x="24" y="184" width="280" height="38" rx="10" fill="#F2B544"/>
      <text x="117" y="208" fill="#070707" font-family="Arial, Helvetica, sans-serif" font-size="15" font-weight="800">PLACE BET</text>
    </g>
  </g>

  <defs>
    <linearGradient id="shade" x1="0" y1="0" x2="1200" y2="520" gradientUnits="userSpaceOnUse">
      <stop stop-color="#070707" stop-opacity=".2"/>
      <stop offset=".55" stop-color="#F2B544" stop-opacity=".03"/>
      <stop offset="1" stop-color="#9945FF" stop-opacity=".06"/>
    </linearGradient>
  </defs>
</svg>
